REM DIRINDEX 1\2,1\3,1\4
REM DIRNAME folder01,folder02,folder03,folder04
TITLE ""
FILE "Track01.mp3" MP3
  TRACK 01 AUDIO
    TITLE "0:"
    INDEX 01 00:00:00
  TRACK 02 AUDIO
    TITLE "4:cjc153_0001"
    INDEX 01 00:00:03
  TRACK 03 AUDIO
    TITLE "0:"
    INDEX 01 00:01:46
  TRACK 04 AUDIO
    TITLE "2:cjc153_0002"
    INDEX 01 00:02:26
  TRACK 05 AUDIO
    TITLE "0:"
    INDEX 01 00:03:29
  TRACK 06 AUDIO
    TITLE "3:cjc153_0003"
    INDEX 01 00:03:53
  TRACK 07 AUDIO
    TITLE "0:"
    INDEX 01 00:04:58
  TRACK 08 AUDIO
    TITLE "2:cjc153_0004"
    INDEX 01 00:05:24
  TRACK 09 AUDIO
    TITLE "0:"
    INDEX 01 00:06:24
  TRACK 10 AUDIO
    TITLE "3:cjc153_0005"
    INDEX 01 00:06:49
  TRACK 11 AUDIO
    TITLE "0:"
    INDEX 01 00:07:56
  TRACK 12 AUDIO
    TITLE "2:cjc153_0006"
    INDEX 01 00:08:17
  TRACK 13 AUDIO
    TITLE "0:"
    INDEX 01 00:09:14
  TRACK 14 AUDIO
    TITLE "3:cjc153_0007"
    INDEX 01 00:09:32
  TRACK 15 AUDIO
    TITLE "0:"
    INDEX 01 00:10:33
  TRACK 16 AUDIO
    TITLE "2:cjc153_0008"
    INDEX 01 00:10:70
  TRACK 17 AUDIO
    TITLE "0:"
    INDEX 01 00:11:64
  TRACK 18 AUDIO
    TITLE "3:cjc153_0009"
    INDEX 01 00:12:14
  TRACK 19 AUDIO
    TITLE "0:"
    INDEX 01 00:13:12
  TRACK 20 AUDIO
    TITLE "2:cjc153_0010"
    INDEX 01 00:13:49
  TRACK 21 AUDIO
    TITLE "0:"
    INDEX 01 00:14:43
  TRACK 22 AUDIO
    TITLE "3:cjc153_0011"
    INDEX 01 00:14:70
  TRACK 23 AUDIO
    TITLE "0:"
    INDEX 01 00:15:64
  TRACK 24 AUDIO
    TITLE "2:cjc153_0012"
    INDEX 01 00:16:30
  TRACK 25 AUDIO
    TITLE "0:"
    INDEX 01 00:17:31
  TRACK 26 AUDIO
    TITLE "3:cjc153_0013"
    INDEX 01 00:17:55
  TRACK 27 AUDIO
    TITLE "0:"
    INDEX 01 00:18:52
  TRACK 28 AUDIO
    TITLE "2:cjc153_0014"
    INDEX 01 00:19:16
  TRACK 29 AUDIO
    TITLE "0:"
    INDEX 01 00:20:18
  TRACK 30 AUDIO
    TITLE "3:cjc153_0015"
    INDEX 01 00:20:47
  TRACK 31 AUDIO
    TITLE "0:"
    INDEX 01 00:21:55
  TRACK 32 AUDIO
    TITLE "2:cjc153_0016"
    INDEX 01 00:22:17
  TRACK 33 AUDIO
    TITLE "0:"
    INDEX 01 00:23:22
  TRACK 34 AUDIO
    TITLE "3:cjc153_0017"
    INDEX 01 00:23:48
  TRACK 35 AUDIO
    TITLE "0:"
    INDEX 01 00:24:55
  TRACK 36 AUDIO
    TITLE "2:cjc153_0018"
    INDEX 01 00:25:19
  TRACK 37 AUDIO
    TITLE "0:"
    INDEX 01 00:26:15
  TRACK 38 AUDIO
    TITLE "3:cjc153_0019"
    INDEX 01 00:26:38
  TRACK 39 AUDIO
    TITLE "0:"
    INDEX 01 00:27:39
  TRACK 40 AUDIO
    TITLE "2:cjc153_0020"
    INDEX 01 00:27:73
  TRACK 41 AUDIO
    TITLE "0:"
    INDEX 01 00:29:03
  TRACK 42 AUDIO
    TITLE "3:cjc153_0021"
    INDEX 01 00:29:29
  TRACK 43 AUDIO
    TITLE "0:"
    INDEX 01 00:30:34
  TRACK 44 AUDIO
    TITLE "2:cjc153_0022"
    INDEX 01 00:31:00
  TRACK 45 AUDIO
    TITLE "0:"
    INDEX 01 00:31:69
  TRACK 46 AUDIO
    TITLE "3:cjc153_0023"
    INDEX 01 00:32:21
  TRACK 47 AUDIO
    TITLE "0:"
    INDEX 01 00:33:26
  TRACK 48 AUDIO
    TITLE "2:cjc153_0024"
    INDEX 01 00:33:64
  TRACK 49 AUDIO
    TITLE "0:"
    INDEX 01 00:34:67
  TRACK 50 AUDIO
    TITLE "3:cjc153_0025"
    INDEX 01 00:35:17
  TRACK 51 AUDIO
    TITLE "0:"
    INDEX 01 00:36:19
  TRACK 52 AUDIO
    TITLE "2:cjc153_0026"
    INDEX 01 00:36:60
  TRACK 53 AUDIO
    TITLE "0:"
    INDEX 01 00:37:61
  TRACK 54 AUDIO
    TITLE "3:cjc153_0027"
    INDEX 01 00:38:10
  TRACK 55 AUDIO
    TITLE "0:"
    INDEX 01 00:39:19
  TRACK 56 AUDIO
    TITLE "2:cjc153_0028"
    INDEX 01 00:39:54
  TRACK 57 AUDIO
    TITLE "0:"
    INDEX 01 00:40:54
  TRACK 58 AUDIO
    TITLE "3:cjc153_0029"
    INDEX 01 00:41:06
  TRACK 59 AUDIO
    TITLE "0:"
    INDEX 01 00:42:12
  TRACK 60 AUDIO
    TITLE "2:cjc153_0030"
    INDEX 01 00:42:53
  TRACK 61 AUDIO
    TITLE "0:"
    INDEX 01 00:43:48
  TRACK 62 AUDIO
    TITLE "3:cjc153_0031"
    INDEX 01 00:43:74
  TRACK 63 AUDIO
    TITLE "0:"
    INDEX 01 00:45:04
